<svg xmlns="http://www.w3.org/2000/svg" width="31.455" height="42.406" viewBox="0 0 31.455 42.406"><g transform="translate(0)"><path d="M723.667,326.959v-4.512a6.488,6.488,0,1,1,12.976,0v4.512h3.635v-4.512a10.123,10.123,0,1,0-20.247,0v4.512Z" transform="translate(-714.428 -312.322)" fill="#868787"/><path d="M744.627,322.262h-23.78a3.839,3.839,0,0,0-3.838,3.839v16.3a3.838,3.838,0,0,0,3.838,3.838h23.78a3.838,3.838,0,0,0,3.838-3.838V326.1A3.839,3.839,0,0,0,744.627,322.262Zm-11.891,17.625a3.991,3.991,0,0,1-2.4-7.19,3.109,3.109,0,1,1,4.8,0,3.99,3.99,0,0,1-2.4,7.19Z" transform="translate(-717.009 -303.834)" fill="#868787"/></g></svg>