<svg id="Capa_1" data-name="Capa 1" xmlns="http://www.w3.org/2000/svg" xmlns:xlink="http://www.w3.org/1999/xlink" viewBox="0 0 468.81 164.86"><defs><style>.cls-1{fill:none;}.cls-2{clip-path:url(#clip-path);}.cls-3{fill:url(#linear-gradient);}.cls-4{clip-path:url(#clip-path-2);}.cls-5{fill:url(#linear-gradient-2);}.cls-6{clip-path:url(#clip-path-3);}.cls-7{fill:url(#linear-gradient-3);}.cls-8{clip-path:url(#clip-path-4);}.cls-9{fill:url(#linear-gradient-4);}.cls-10{clip-path:url(#clip-path-5);}.cls-11{fill:url(#linear-gradient-5);}.cls-12{clip-path:url(#clip-path-6);}.cls-13{fill:url(#linear-gradient-6);}.cls-14{clip-path:url(#clip-path-7);}.cls-15{fill:url(#linear-gradient-7);}.cls-16{clip-path:url(#clip-path-8);}.cls-17{fill:url(#linear-gradient-8);}.cls-18{clip-path:url(#clip-path-9);}.cls-19{fill:url(#linear-gradient-9);}.cls-20{clip-path:url(#clip-path-10);}.cls-21{fill:url(#linear-gradient-10);}.cls-22{clip-path:url(#clip-path-11);}.cls-23{fill:url(#linear-gradient-11);}.cls-24{clip-path:url(#clip-path-12);}.cls-25{fill:#90c23e;}.cls-26{clip-path:url(#clip-path-14);}.cls-27{fill:url(#linear-gradient-12);}.cls-28{clip-path:url(#clip-path-15);}.cls-29{fill:url(#linear-gradient-13);}.cls-30{clip-path:url(#clip-path-17);}.cls-31{clip-path:url(#clip-path-18);}.cls-32{fill:url(#linear-gradient-14);}.cls-33{fill:#4f7bbe;}</style><clipPath id="clip-path" transform="translate(-44.6 0.39)"><polygon class="cls-1" points="96.23 87.81 96.23 142.5 80.93 142.5 80.93 104.44 70.27 142.5 61.41 142.5 50.47 105.08 50.47 142.5 45.15 142.5 45.15 87.81 61.24 87.81 70.63 120.82 79.97 87.81 96.23 87.81"/></clipPath><linearGradient id="linear-gradient" x1="2.93" y1="227.1" x2="3.88" y2="227.1" gradientTransform="matrix(-164.27, 0, 0, 164.27, 627.02, -37191.85)" gradientUnits="userSpaceOnUse"><stop offset="0" stop-color="#3c96c3"/><stop offset="0.05" stop-color="#3c96c3"/><stop offset="1" stop-color="#113154"/></linearGradient><clipPath id="clip-path-2" transform="translate(-44.6 0.39)"><path class="cls-1" d="M118.55,115.42Q119,105,122.88,105q4.25,0,4.24,14.1h-8.73Zm-10.06-8.18q-5.37,6.26-5.37,16,0,20.15,20.19,20.14,15.6,0,16.51-14l-5.89-1.72c.06,1,.08,2,.08,2.76q0,9-7.53,9-8.06,0-8-15.87h21.31q0-22.61-17.51-22.6a17.29,17.29,0,0,0-13.74,6.25"/></clipPath><linearGradient id="linear-gradient-2" x1="2.93" y1="227.08" x2="3.88" y2="227.08" gradientTransform="matrix(-1.63, 164.25, 164.25, 1.63, -37215.63, -808.37)" xlink:href="#linear-gradient"/><clipPath id="clip-path-3" transform="translate(-44.6 0.39)"><path class="cls-1" d="M159.45,130l-.16-7.82.29-8.57c0-4.52,1.23-6.77,3.68-6.77s3.86,2.23,4.29,6.69l.32,6.73-.2,9.86c0,4.92-1.35,7.37-4,7.37s-4.18-2.49-4.18-7.49m8.14-42.23V106a10.4,10.4,0,0,0-9.06-5q-14.42,0-14.42,21.52,0,20.89,13.62,20.91a12.21,12.21,0,0,0,9.86-4.41v3.49h14.63V87a138.89,138.89,0,0,1-14.63.85"/></clipPath><linearGradient id="linear-gradient-3" x1="2.93" y1="227.08" x2="3.88" y2="227.08" gradientTransform="matrix(-164.27, 0.01, 0.01, 164.27, 715.64, -37187.02)" xlink:href="#linear-gradient"/><clipPath id="clip-path-4" transform="translate(-44.6 0.39)"><path class="cls-1" d="M190.35,102.15V142.5H205V101.07a106.43,106.43,0,0,1-14.62,1.08m.59-10.41q0,5.28,6.82,5.28c4.53,0,6.81-1.76,6.81-5.28s-2.28-5.29-6.81-5.29-6.82,1.76-6.82,5.29"/></clipPath><linearGradient id="linear-gradient-4" x1="2.93" y1="227.06" x2="3.88" y2="227.06" gradientTransform="matrix(-164.25, 0, 0, 164.25, 751.44, -37180.95)" xlink:href="#linear-gradient"/><clipPath id="clip-path-5" transform="translate(-44.6 0.39)"><path class="cls-1" d="M217.15,107q-5.81,6-5.8,16.16,0,20.25,19.94,20.25,16.83,0,16.83-15.4l0-1.64-6.18-1.88a38.81,38.81,0,0,1,.49,4.8q0,10.56-8.14,10.55a6,6,0,0,1-6.09-3.91q-1.65-3.91-1.65-14.4c0-11.33,13.51-14.11,13.51-8.34L240,117l6.85-3.33q0-12.73-14.06-12.74-9.78,0-15.59,6"/></clipPath><linearGradient id="linear-gradient-5" x1="2.93" y1="227.05" x2="3.88" y2="227.05" gradientTransform="matrix(-1.63, 164.25, 164.25, 1.63, -37101.64, -807.13)" xlink:href="#linear-gradient"/><clipPath id="clip-path-6" transform="translate(-44.6 0.39)"><path class="cls-1" d="M265.59,129.72q0-6.25,4.53-8.9a12.41,12.41,0,0,0,3.17-2.6V129.8q0,7.94-4.58,7.93c-2.07,0-3.12-2.67-3.12-8M253.7,110.57a24.84,24.84,0,0,0,.27,3.52l7.26,1.41a15.44,15.44,0,0,1-1.13-5q0-6,7.14-6,6.17,0,6.17,6.21,0,4.72-10.74,8.09Q251,122.47,251,131.48q0,11.86,12.78,11.86,6.86,0,10.5-4.89c1.17,3.13,4.27,4.68,9.29,4.68A28.75,28.75,0,0,0,294,141.06l-1.4-3.69a5.15,5.15,0,0,1-2.25.84c-1.62,0-2.44-1.25-2.44-3.76V109.92q0-9-16.67-9-17.55,0-17.54,9.62"/></clipPath><linearGradient id="linear-gradient-6" x1="2.93" y1="227.04" x2="3.88" y2="227.04" gradientTransform="matrix(-164.26, 0.02, 0.02, 164.26, 827.83, -37170.52)" xlink:href="#linear-gradient"/><clipPath id="clip-path-7" transform="translate(-44.6 0.39)"><path class="cls-1" d="M336.72,149.18h0a2.41,2.41,0,0,0,.47-.15l-.47.15m23.35-68.59c-1.62,17.11-3.78,29-6.23,38.69-6.09,24-14.57,28.88-16.65,29.75,6.33-2.19,22.06-6,28.44-11.3,23.19-19.25,19.76-92.18,19.76-92.18L361.56,34.14c.41,7.58-1.49,46.45-1.49,46.45"/></clipPath><linearGradient id="linear-gradient-7" x1="2.94" y1="227.28" x2="3.9" y2="227.28" gradientTransform="matrix(-10.09, 116.8, -62.58, -18.84, 14576.82, 3963.42)" xlink:href="#linear-gradient"/><clipPath id="clip-path-8" transform="translate(-44.6 0.39)"><path class="cls-1" d="M302.77,86.49S308.94,137,331.21,143a13.8,13.8,0,0,0,11.46-7.83s-13.43-2.38-24.78-29.2c0,0-20.45-51.62,2.94-103.76,0,0-27.5,20.43-18.06,84.28"/></clipPath><linearGradient id="linear-gradient-8" x1="2.95" y1="227.19" x2="3.9" y2="227.19" gradientTransform="matrix(-2.46, 163.24, -87.46, -4.6, 20152.04, 536.06)" gradientUnits="userSpaceOnUse"><stop offset="0" stop-color="#3c96c3"/><stop offset="0.63" stop-color="#3c96c3"/><stop offset="1" stop-color="#113154"/></linearGradient><clipPath id="clip-path-9" transform="translate(-44.6 0.39)"><path class="cls-1" d="M356.7,36.44s-1.86,72.08-11.62,93.39c0,0-10.1,30.1-29.78-1.59,0,0-12.64-19.24-14.47-64.26,0,0-2.68,45.73,16.23,73.75,0,0,8.9,18.71,23.34,9.7,4.94-3.09,7.67-7,13.05-25.52,0,0,9.59-35.42,8.11-87.77a36.46,36.46,0,0,1-4.86,2.3"/></clipPath><linearGradient id="linear-gradient-9" x1="2.87" y1="226.96" x2="3.82" y2="226.96" gradientTransform="translate(72.27 -27076.29) scale(64.15 119.73)" gradientUnits="userSpaceOnUse"><stop offset="0" stop-color="#113154"/><stop offset="0.27" stop-color="#3c96c3"/><stop offset="1" stop-color="#113154"/></linearGradient><clipPath id="clip-path-10" transform="translate(-44.6 0.39)"><path class="cls-1" d="M331.51,86.59a5.31,5.31,0,1,0,5.32-5.18,5.26,5.26,0,0,0-5.32,5.18"/></clipPath><linearGradient id="linear-gradient-10" x1="1.56" y1="227.9" x2="2.51" y2="227.9" gradientTransform="translate(2727.44 63.49) rotate(90.01) scale(10.49)" xlink:href="#linear-gradient"/><clipPath id="clip-path-11" transform="translate(-44.6 0.39)"><path class="cls-1" d="M325,67.92a6.66,6.66,0,1,0,6.65-6.52A6.59,6.59,0,0,0,325,67.92"/></clipPath><linearGradient id="linear-gradient-11" x1="2.31" y1="226.16" x2="3.26" y2="226.16" gradientTransform="translate(248.08 -3095.32) scale(13.99)" gradientUnits="userSpaceOnUse"><stop offset="0" stop-color="#7a974b"/><stop offset="0.15" stop-color="#7a974b"/><stop offset="1" stop-color="#113154"/></linearGradient><clipPath id="clip-path-12" transform="translate(-44.6 0.39)"><rect class="cls-1" x="9.28" y="-39.79" width="535.23" height="246.8"/></clipPath><clipPath id="clip-path-14" transform="translate(-44.6 0.39)"><path class="cls-1" d="M317.63,45.2a8,8,0,1,0,8-8,8,8,0,0,0-8,8"/></clipPath><linearGradient id="linear-gradient-12" x1="2.4" y1="227.53" x2="3.35" y2="227.53" gradientTransform="matrix(0, 20.15, -20.15, 0, 4910.09, -15.79)" xlink:href="#linear-gradient"/><clipPath id="clip-path-15" transform="translate(-44.6 0.39)"><path class="cls-1" d="M322.51,55.65c-6.15,2.89-6.63,8.31-6.63,8.31-.05,6.21,6.72,6.07,6.72,6.07-6-2.92-2.84-8.13-2.84-8.13,7.17-8.45,17.63-4.2,17.63-4.2a6.28,6.28,0,0,1,2.68,5.51,5.65,5.65,0,0,0-1.34-7.2A19.54,19.54,0,0,0,330,53.82a14.84,14.84,0,0,0-7.44,1.83"/></clipPath><linearGradient id="linear-gradient-13" x1="2.85" y1="226.84" x2="3.8" y2="226.84" gradientTransform="translate(96.33 -11813.15) scale(52.35)" xlink:href="#linear-gradient"/><clipPath id="clip-path-17" transform="translate(-44.6 0.39)"><path class="cls-1" d="M328.85,77.15a9.5,9.5,0,0,0-5.71,7.14c0,5.34,5.77,5.22,5.77,5.22-5.1-2.51-2.43-7-2.43-7,6.16-7.26,15.15-3.61,15.15-3.61a5.41,5.41,0,0,1,2.3,4.73,4.86,4.86,0,0,0-1.15-6.18,16.75,16.75,0,0,0-7.54-1.88,12.69,12.69,0,0,0-6.39,1.57"/></clipPath><clipPath id="clip-path-18" transform="translate(-44.6 0.39)"><path class="cls-1" d="M335.05,93.79A6.92,6.92,0,0,0,330.89,99c0,3.91,4.21,3.82,4.21,3.82a3.51,3.51,0,0,1-1.78-5.1c4.49-5.3,11.05-2.64,11.05-2.64A3.91,3.91,0,0,1,346,98.53a3.54,3.54,0,0,0-.82-4.51,12.34,12.34,0,0,0-5.51-1.37,9.3,9.3,0,0,0-4.66,1.14"/></clipPath><linearGradient id="linear-gradient-14" x1="2.71" y1="226.62" x2="3.66" y2="226.62" gradientTransform="translate(182.59 -7009.11) scale(31.36)" xlink:href="#linear-gradient"/></defs><title>LOGO MEDICAVITAL</title><g class="cls-2"><rect class="cls-3" x="43.09" y="89.34" width="55.2" height="51.62" transform="translate(-89.76 185.08) rotate(-89.43)"/></g><g class="cls-4"><polygon class="cls-5" points="95.64 101.38 95.22 144.17 58.1 143.81 58.52 101.01 95.64 101.38"/></g><g class="cls-6"><rect class="cls-7" x="134.75" y="95.86" width="56.83" height="38.66" transform="translate(1.75 277.59) rotate(-89.43)"/></g><g class="cls-8"><rect class="cls-9" x="169.56" y="106.88" width="56.19" height="15.18" transform="translate(36.63 311.38) rotate(-89.43)"/></g><g class="cls-10"><polygon class="cls-11" points="203.94 101.34 203.51 144.13 166.32 143.76 166.74 100.97 203.94 101.34"/></g><g class="cls-12"><rect class="cls-13" x="251.08" y="100.42" width="42.81" height="43.45" transform="translate(103 393.78) rotate(-89.42)"/></g><g class="cls-14"><polygon class="cls-15" points="293.44 19.24 282.43 146.65 342.89 164.85 353.9 37.44 293.44 19.24"/></g><g class="cls-16"><polygon class="cls-17" points="248.76 0 246.6 143.27 298.03 145.97 300.19 2.71 248.76 0"/></g><g class="cls-18"><rect class="cls-19" x="253.55" y="34.52" width="64.89" height="125.79"/></g><g class="cls-20"><rect class="cls-21" x="330.81" y="80.69" width="12.03" height="11.81" transform="translate(-53.67 50.77) rotate(-8.44)"/></g><g class="cls-22"><rect class="cls-23" x="280.35" y="61.79" width="13.31" height="13.04"/></g><g class="cls-24"><path class="cls-25" d="M325,67.92a6.66,6.66,0,1,0,6.65-6.52A6.58,6.58,0,0,0,325,67.92" transform="translate(-44.6 0.39)"/></g><g class="cls-22"><polygon class="cls-25" points="292.93 58.77 296.61 74.12 281.06 77.83 277.4 62.49 292.93 58.77"/></g><g class="cls-26"><rect class="cls-27" x="317.14" y="36.67" width="17.01" height="17.06" transform="translate(-46.82 21.18) rotate(-3.65)"/></g><g class="cls-28"><rect class="cls-29" x="271.23" y="53.84" width="26.59" height="16.72"/></g><g class="cls-24"><path class="cls-25" d="M328.85,77.15a9.48,9.48,0,0,0-5.71,7.14c0,5.34,5.77,5.22,5.77,5.22-5.1-2.51-2.43-7-2.43-7,6.16-7.26,15.15-3.61,15.15-3.61a5.41,5.41,0,0,1,2.3,4.73,4.86,4.86,0,0,0-1.15-6.18,16.75,16.75,0,0,0-7.54-1.88,12.69,12.69,0,0,0-6.39,1.57" transform="translate(-44.6 0.39)"/></g><g class="cls-30"><rect class="cls-25" x="278.5" y="75.65" width="22.84" height="14.37"/></g><g class="cls-31"><rect class="cls-32" x="286.25" y="92.81" width="16.67" height="10.48"/></g><g class="cls-24"><path class="cls-25" d="M393.54,97.92h4.8v6.42h-4.8Zm0,12.54h4.8v33h-4.8Z" transform="translate(-44.6 0.39)"/><path class="cls-25" d="M416.11,138.42l.7,4.94a15.63,15.63,0,0,1-3.63.5,7.26,7.26,0,0,1-4.05-1,5.13,5.13,0,0,1-2-2.53q-.59-1.56-.58-6.59v-19H403v-4.34h3.52v-8.17l4.76-3.35v11.52h4.83v4.34h-4.83v19.28a11.27,11.27,0,0,0,.26,3.08,2.27,2.27,0,0,0,.82,1.08,2.84,2.84,0,0,0,1.64.4,12.88,12.88,0,0,0,2.11-.22" transform="translate(-44.6 0.39)"/><path class="cls-25" d="M439.26,139.36a17.82,17.82,0,0,1-5.13,3.72,12.88,12.88,0,0,1-5.29,1.09c-3.11,0-5.49-.89-7.16-2.66a9.49,9.49,0,0,1-2.51-6.78,10.29,10.29,0,0,1,.95-4.43,8.84,8.84,0,0,1,2.47-3.21,11.1,11.1,0,0,1,3.45-1.83,30.34,30.34,0,0,1,4.27-.84,38.88,38.88,0,0,0,8.55-1.92c0-.77,0-1.25,0-1.46q0-3.42-1.35-4.81a7.3,7.3,0,0,0-5.46-1.89,7.64,7.64,0,0,0-5,1.37,9,9,0,0,0-2.39,4.9l-4.69-.75a14.82,14.82,0,0,1,2.11-5.66,9.36,9.36,0,0,1,4.24-3.33,16.57,16.57,0,0,1,6.42-1.16,14.82,14.82,0,0,1,5.88,1,7.72,7.72,0,0,1,3.33,2.5,9.48,9.48,0,0,1,1.49,3.81,34.5,34.5,0,0,1,.25,5.15v7.45a89.9,89.9,0,0,0,.31,9.85,13.46,13.46,0,0,0,1.21,4h-5a13.23,13.23,0,0,1-1-4.06m-.4-12.48A31,31,0,0,1,431,129a15.72,15.72,0,0,0-4.19,1.12,4.33,4.33,0,0,0-1.88,1.81,5.32,5.32,0,0,0-.68,2.66,5.11,5.11,0,0,0,1.46,3.72,5.68,5.68,0,0,0,4.25,1.49,8.81,8.81,0,0,0,4.93-1.41,8.26,8.26,0,0,0,3.16-3.87,15.33,15.33,0,0,0,.78-5.58Z" transform="translate(-44.6 0.39)"/><rect class="cls-25" x="406.43" y="98.3" width="4.79" height="45.5"/><path class="cls-33" d="M475.67,129.93a1.41,1.41,0,0,0,.38-.59c.06-.17.14-.26.25-.26a.29.29,0,0,1,.19.11q.08.38.21,1.53l.25,2c0,.12-.07.18-.23.18s-.15-.06-.22-.21a5.8,5.8,0,0,0-1.65-2.3,3.72,3.72,0,0,0-2.4-.9,2.38,2.38,0,0,0-1.93.77,2.51,2.51,0,0,0-.65,1.63,1.94,1.94,0,0,0,.71,1.62,10.47,10.47,0,0,0,2.91,1.26,12.3,12.3,0,0,1,2.44,1,3.9,3.9,0,0,1,1.35,1.33,3.26,3.26,0,0,1,.55,1.84,4,4,0,0,1-1.38,3,4.73,4.73,0,0,1-3.4,1.32,6.84,6.84,0,0,1-3.62-1.13,1.33,1.33,0,0,0-.46.7c-.06.22-.15.33-.28.33s-.19-.14-.24-.43-.15-1.66-.31-4.09a.2.2,0,0,1,.22-.14c.11,0,.19.09.26.24,1.08,2.72,2.59,4.09,4.53,4.09a2.94,2.94,0,0,0,2.27-.88,2.84,2.84,0,0,0,.82-2,2.55,2.55,0,0,0-.44-1.44,3.38,3.38,0,0,0-1.16-1.06,13.86,13.86,0,0,0-2.29-.89,9.61,9.61,0,0,1-2.72-1.22,3.62,3.62,0,0,1-1.07-1.3,3.38,3.38,0,0,1-.34-1.4,3.2,3.2,0,0,1,1.28-2.49,4.59,4.59,0,0,1,3.11-1.08,5.55,5.55,0,0,1,1.47.21,8.17,8.17,0,0,1,1.59.68" transform="translate(-44.6 0.39)"/><path class="cls-33" d="M480.91,141.06a1,1,0,0,1,1,1,1,1,0,0,1-.31.74,1.05,1.05,0,0,1-1.47,0,1,1,0,0,1-.3-.74,1,1,0,0,1,.3-.73,1,1,0,0,1,.73-.3" transform="translate(-44.6 0.39)"/><path class="cls-33" d="M490.23,128.91h.49c.78,1.6,1.86,4.36,3.25,8.26a36.72,36.72,0,0,0,1.83,4.6,1.91,1.91,0,0,0,1.6.94c.23,0,.35.1.35.23s-.06.15-.18.15h-.15C496.77,143,496,143,495,143c-1.53,0-2.52,0-2.95.07-.23,0-.33-.07-.33-.19s.08-.15.24-.17a3,3,0,0,0,1.24-.3.79.79,0,0,0,.35-.7,10.16,10.16,0,0,0-.65-2.27l-.62-1.81c-.37,0-2,0-4.9.06a15.4,15.4,0,0,0-1.11,3.68,1,1,0,0,0,.54,1,2.45,2.45,0,0,0,1.08.35c.26,0,.39.1.39.23s-.05.11-.13.16c-1.13,0-1.81-.07-2-.07-1.18,0-2,0-2.38,0-.23,0-.34-.07-.34-.19s.1-.18.3-.21A2.43,2.43,0,0,0,485.5,141q.63-1.49,2-5.35,1.25-3.52,2.73-6.73m-.43,2.3a53.61,53.61,0,0,0-2.29,5.82l1.56-.05,3,.05c-.27-.73-.63-1.7-1.09-2.91-.58-1.45-1-2.41-1.15-2.91" transform="translate(-44.6 0.39)"/><path class="cls-33" d="M500.5,141.06a1,1,0,0,1,.73.29,1,1,0,0,1,.32.74,1,1,0,0,1-.31.74,1,1,0,0,1-.74.3,1,1,0,0,1-.72-.3,1,1,0,0,1-.31-.74,1,1,0,0,1,.31-.73.94.94,0,0,1,.72-.3" transform="translate(-44.6 0.39)"/><path class="cls-33" d="M511.25,129.93a1.68,1.68,0,0,0,.39-.59c.06-.17.13-.26.24-.26a.29.29,0,0,1,.19.11q.07.38.21,1.53l.26,2q0,.18-.24.18c-.08,0-.15-.06-.22-.21a5.8,5.8,0,0,0-1.65-2.3,3.74,3.74,0,0,0-2.4-.9,2.38,2.38,0,0,0-1.93.77,2.5,2.5,0,0,0-.64,1.63,1.93,1.93,0,0,0,.7,1.62,10.62,10.62,0,0,0,2.91,1.26,12,12,0,0,1,2.44,1,3.9,3.9,0,0,1,1.35,1.33,3.26,3.26,0,0,1,.55,1.84,4,4,0,0,1-1.38,3,4.73,4.73,0,0,1-3.39,1.32,6.9,6.9,0,0,1-3.63-1.13,1.27,1.27,0,0,0-.46.7c-.06.22-.16.33-.28.33s-.19-.14-.24-.43-.15-1.66-.31-4.09a.2.2,0,0,1,.22-.14c.11,0,.19.09.26.24,1.08,2.72,2.59,4.09,4.53,4.09a2.94,2.94,0,0,0,2.27-.88,2.84,2.84,0,0,0,.82-2,2.55,2.55,0,0,0-.44-1.44,3.29,3.29,0,0,0-1.16-1.06,14.85,14.85,0,0,0-2.28-.89,10,10,0,0,1-2.74-1.22,3.69,3.69,0,0,1-1.06-1.3,3.36,3.36,0,0,1-.33-1.4,3.19,3.19,0,0,1,1.27-2.49,4.59,4.59,0,0,1,3.11-1.08,5.55,5.55,0,0,1,1.47.21,8.17,8.17,0,0,1,1.59.68" transform="translate(-44.6 0.39)"/></g></svg>