<svg id="Capa_1" data-name="Capa 1" xmlns="http://www.w3.org/2000/svg" xmlns:xlink="http://www.w3.org/1999/xlink" viewBox="0 0 231.02 354.94"><defs><style>.cls-1{fill:url(#linear-gradient);}.cls-2{fill:url(#linear-gradient-2);}.cls-3{fill:#98bf1e;}.cls-4{fill:none;}.cls-5{clip-path:url(#clip-path);}.cls-6{fill:url(#linear-gradient-4);}.cls-7{clip-path:url(#clip-path-2);}.cls-8{fill:url(#linear-gradient-6);}.cls-9{clip-path:url(#clip-path-3);}.cls-10{fill:url(#linear-gradient-7);}.cls-11{clip-path:url(#clip-path-4);}.cls-12{fill:url(#linear-gradient-8);}.cls-13{clip-path:url(#clip-path-5);}.cls-14{fill:url(#linear-gradient-9);}.cls-15{clip-path:url(#clip-path-6);}.cls-16{clip-path:url(#clip-path-7);}.cls-17{fill:url(#linear-gradient-10);}.cls-18{clip-path:url(#clip-path-8);}.cls-19{fill:url(#linear-gradient-11);}.cls-20{clip-path:url(#clip-path-9);}.cls-21{clip-path:url(#clip-path-10);}.cls-22{fill:url(#linear-gradient-12);}</style><linearGradient id="linear-gradient" x1="187.98" y1="205.27" x2="279.72" y2="205.27" gradientUnits="userSpaceOnUse"><stop offset="0" stop-color="#3e96c6"/><stop offset="1" stop-color="#1a2f51"/></linearGradient><linearGradient id="linear-gradient-2" x1="95.35" y1="164.23" x2="193.09" y2="164.23" gradientUnits="userSpaceOnUse"><stop offset="0.23" stop-color="#3e96c6"/><stop offset="1" stop-color="#1a2f51"/></linearGradient><clipPath id="clip-path" transform="translate(-92.36 -7.1)"><path class="cls-1" d="M190.35,329.13a8.81,8.81,0,0,0,1-.36l-1,.36m50.28-147.69c-3.47,36.82-5.49,67.53-10.77,88.34-13.12,51.64-34,57.14-38.5,59,13.63-4.69,47.49-12.88,61.25-24.3C302.52,263,295.15,106,295.15,106L243.83,81.42c.89,16.31-3.2,100-3.2,100"/></clipPath><linearGradient id="linear-gradient-4" x1="-583.8" y1="644.3" x2="-581.74" y2="644.3" gradientTransform="matrix(-10.03, 116.04, 62.17, 18.72, -45743.29, 55738.63)" xlink:href="#linear-gradient"/><clipPath id="clip-path-2" transform="translate(-92.36 -7.1)"><path class="cls-2" d="M117.26,194.13S130.54,302.92,178.5,315.8c0,0,17.08-.51,24.66-16.85,0,0-28.91-5.13-53.35-62.89,0,0-44-111.13,6.33-223.39,0,0-59.2,44-38.88,181.46"/></clipPath><linearGradient id="linear-gradient-6" x1="-583.31" y1="642.87" x2="-581.25" y2="642.87" gradientTransform="matrix(-2.45, 162.16, 86.88, 4.57, -57219.65, 91596.86)" xlink:href="#linear-gradient-2"/><clipPath id="clip-path-3" transform="translate(-92.36 -7.1)"><path class="cls-4" d="M233.38,86.38s-4,155.18-25,201.08c0,0-21.78,64.8-64.12-3.43,0,0-27.22-41.42-31.16-138.35,0,0-5.75,98.46,34.93,158.79,0,0,19.18,40.26,50.27,20.87,10.63-6.64,20.86-15.12,32.45-55.1,0,0,16.29-76.11,13.1-188.82,0,0-7.06,3.93-10.45,5"/></clipPath><linearGradient id="linear-gradient-7" x1="-579.68" y1="641.52" x2="-577.61" y2="641.52" gradientTransform="matrix(63.71, 0, 0, -118.92, 36953.14, 76498)" gradientUnits="userSpaceOnUse"><stop offset="0" stop-color="#1a2f51"/><stop offset="0.27" stop-color="#3e96c6"/><stop offset="1" stop-color="#1a2f51"/></linearGradient><clipPath id="clip-path-4" transform="translate(-92.36 -7.1)"><path class="cls-4" d="M179.13,194.35a11.44,11.44,0,1,0,11.45-11.16,11.33,11.33,0,0,0-11.45,11.16"/></clipPath><linearGradient id="linear-gradient-8" x1="-587.59" y1="660" x2="-585.53" y2="660" gradientTransform="matrix(1.53, 10.3, 10.3, -1.53, -5807.34, 7233.2)" gradientUnits="userSpaceOnUse"><stop offset="0" stop-color="#3e96c6"/><stop offset="0.05" stop-color="#3e96c6"/><stop offset="1" stop-color="#1a2f51"/></linearGradient><clipPath id="clip-path-5" transform="translate(-92.36 -7.1)"><path class="cls-4" d="M165,154.14a14.33,14.33,0,1,0,14.32-14,14.18,14.18,0,0,0-14.32,14"/></clipPath><linearGradient id="linear-gradient-9" x1="-569.41" y1="648.12" x2="-567.35" y2="648.12" gradientTransform="matrix(13.9, 0, 0, -13.9, 7986.46, 9154.72)" gradientUnits="userSpaceOnUse"><stop offset="0" stop-color="#809840"/><stop offset="0.15" stop-color="#809840"/><stop offset="1" stop-color="#1a2f51"/></linearGradient><clipPath id="clip-path-6" transform="translate(-92.36 -7.1)"><path class="cls-3" d="M165,154.14a14.33,14.33,0,1,0,14.32-14,14.18,14.18,0,0,0-14.32,14"/></clipPath><clipPath id="clip-path-7" transform="translate(-92.36 -7.1)"><path class="cls-4" d="M149.26,105.23a17.26,17.26,0,1,0,17.25-17.3,17.28,17.28,0,0,0-17.25,17.3"/></clipPath><linearGradient id="linear-gradient-10" x1="-588.36" y1="650.18" x2="-586.3" y2="650.18" gradientTransform="matrix(1.27, 19.97, 19.97, -1.27, -12163.49, 12647.43)" xlink:href="#linear-gradient-8"/><clipPath id="clip-path-8" transform="translate(-92.36 -7.1)"><path class="cls-4" d="M159.77,127.73c-13.25,6.22-14.29,17.9-14.29,17.9-.1,13.37,14.46,13.07,14.46,13.07-12.78-6.28-6.12-17.5-6.12-17.5,15.45-18.19,38-9,38-9,6.4,4,5.76,11.85,5.76,11.85,5.06-9.3-2.87-15.49-2.87-15.49a42,42,0,0,0-18.91-4.71c-9.85,0-16,3.93-16,3.93"/></clipPath><linearGradient id="linear-gradient-11" x1="-579.38" y1="643.04" x2="-577.32" y2="643.04" gradientTransform="matrix(51.99, 0, 0, -51.99, 30121.13, 33567.65)" xlink:href="#linear-gradient-8"/><clipPath id="clip-path-9" transform="translate(-92.36 -7.1)"><path class="cls-3" d="M173.41,174c-11.39,5.34-12.29,15.36-12.29,15.36-.08,11.5,12.42,11.24,12.42,11.24-11-5.41-5.24-15-5.24-15,13.28-15.64,32.62-7.79,32.62-7.79,5.5,3.48,5,10.19,5,10.19,4.34-8-2.47-13.32-2.47-13.32a36.24,36.24,0,0,0-16.24-4,27.23,27.23,0,0,0-13.76,3.4"/></clipPath><clipPath id="clip-path-10" transform="translate(-92.36 -7.1)"><path class="cls-4" d="M186.75,209.85c-8.31,3.92-9,11.23-9,11.23-.07,8.4,9.07,8.21,9.07,8.21-8-3.95-3.83-11-3.83-11,9.67-11.4,23.8-5.68,23.8-5.68,4,2.54,3.6,7.43,3.6,7.43a7.63,7.63,0,0,0-1.78-9.72,26.63,26.63,0,0,0-11.86-2.93,20.15,20.15,0,0,0-10,2.44"/></clipPath><linearGradient id="linear-gradient-12" x1="-576.84" y1="643.13" x2="-574.78" y2="643.13" gradientTransform="matrix(31.17, 0, 0, -31.17, 18025.98, 20258.72)" xlink:href="#linear-gradient-8"/></defs><title>logo-grupo-vital</title><path class="cls-1" d="M190.35,329.13a8.81,8.81,0,0,0,1-.36l-1,.36m50.28-147.69c-3.47,36.82-5.49,67.53-10.77,88.34-13.12,51.64-34,57.14-38.5,59,13.63-4.69,47.49-12.88,61.25-24.3C302.52,263,295.15,106,295.15,106L243.83,81.42c.89,16.31-3.2,100-3.2,100" transform="translate(-92.36 -7.1)"/><g class="cls-5"><polygon class="cls-6" points="231.02 80.6 207.32 354.94 77.14 315.75 100.85 41.4 231.02 80.6"/></g><path class="cls-2" d="M117.26,194.13S130.54,302.92,178.5,315.8c0,0,17.08-.51,24.66-16.85,0,0-28.91-5.13-53.35-62.89,0,0-44-111.13,6.33-223.39,0,0-59.2,44-38.88,181.46" transform="translate(-92.36 -7.1)"/><g class="cls-7"><polygon class="cls-8" points="115.38 5.83 110.72 314.28 0 308.46 4.66 0 115.38 5.83"/></g><g class="cls-9"><rect class="cls-10" x="14.97" y="74.33" width="139.69" height="270.84"/></g><g class="cls-11"><polygon class="cls-12" points="109.18 172.8 112.9 197.93 87.27 201.73 83.53 176.59 109.18 172.8"/></g><g class="cls-13"><rect class="cls-14" x="72.65" y="133.02" width="28.66" height="28.07"/></g><path class="cls-3" d="M165,154.14a14.33,14.33,0,1,0,14.32-14,14.18,14.18,0,0,0-14.32,14" transform="translate(-92.36 -7.1)"/><g class="cls-15"><polygon class="cls-3" points="99.76 126.54 107.67 159.57 74.2 167.57 66.3 134.54 99.76 126.54"/></g><g class="cls-16"><polygon class="cls-17" points="91.26 78.65 93.6 115.33 57.05 117.64 54.72 80.97 91.26 78.65"/></g><g class="cls-18"><rect class="cls-19" x="53.02" y="115.91" width="57.24" height="35.99"/></g><path class="cls-3" d="M173.41,174c-11.39,5.34-12.29,15.36-12.29,15.36-.08,11.5,12.42,11.24,12.42,11.24-11-5.41-5.24-15-5.24-15,13.28-15.64,32.62-7.79,32.62-7.79,5.5,3.48,5,10.19,5,10.19,4.34-8-2.47-13.32-2.47-13.32a36.24,36.24,0,0,0-16.24-4,27.23,27.23,0,0,0-13.76,3.4" transform="translate(-92.36 -7.1)"/><g class="cls-20"><rect class="cls-3" x="68.68" y="162.87" width="49.18" height="30.94"/></g><g class="cls-21"><rect class="cls-22" x="85.36" y="199.82" width="35.89" height="22.57"/></g></svg>